# xmcd
#
# Track frame offsets: 
#        150
#        17765
#        29362
#        40947
#        53862
#        73465
#        91675
#        107647
#        120502
#        137707
#        152122
#        168787
#        186285
#        198317
#        214462
#        229837
#        240112
#        252860
#        263362
#        273540
#
# Disc length: 3857 seconds
#
# Revision: 0
# Processed by: cddbd v1.5.1PL2 Copyright (c) Steve Scherf et al.
# Submitted via: ExactAudioCopy v0.95b4
#
DISCID=120f0f14
DTITLE=Willie Nelson - All The Songs I've Loved Before [CD1)
DYEAR=2001
DGENRE=Country
TTITLE0=All Of Me
TTITLE1=Don't Get Around Much Anymore
TTITLE2=On The Sunny Side Of The Street
TTITLE3=Twilight Time
TTITLE4=Georgia On My Mind
TTITLE5=Someone To Watch Over Me
TTITLE6=Always On My Mind
TTITLE7=Crazy
TTITLE8=Unchained Melody
TTITLE9=Moon River
TTITLE10=Some Enchanted Evening
TTITLE11=Stardust
TTITLE12=That Lucky Old Sun
TTITLE13=Blue Skies
TTITLE14=Moonlight In Vermont
TTITLE15=Always
TTITLE16=Ole Buttermilk Sky
TTITLE17=Blue Eyes Crying In The Rain
TTITLE18=What A Wonderful World
TTITLE19=To All The Girls I've Loved Before
EXTD=
EXTT0=
EXTT1=
EXTT2=
EXTT3=
EXTT4=
EXTT5=
EXTT6=
EXTT7=
EXTT8=
EXTT9=
EXTT10=
EXTT11=
EXTT12=
EXTT13=
EXTT14=
EXTT15=
EXTT16=
EXTT17=
EXTT18=
EXTT19=
PLAYORDER=
